<mxfile host="app.diagrams.net" modified="2022-10-21T12:20:53.511Z" agent="5.0 (Windows NT 10.0; Win64; x64) AppleWebKit/537.36 (KHTML, like Gecko) Chrome/104.0.5112.81 Safari/537.36" etag="sdK1Xx3jcJwIogetbBxy" version="20.5.0" type="github">
  <diagram id="8ncrkIq7immhGaRf0LnC" name="Page-1">
    <mxGraphModel dx="1384" dy="767" grid="1" gridSize="10" guides="1" tooltips="1" connect="1" arrows="1" fold="1" page="1" pageScale="1" pageWidth="850" pageHeight="1100" math="0" shadow="0">
      <root>
        <mxCell id="0" />
        <mxCell id="1" parent="0" />
        <mxCell id="0k8XALfBYV1QB0xShEJz-10" value="" style="ellipse;html=1;shape=startState;fillColor=#000000;strokeColor=#ff0000;" vertex="1" parent="1">
          <mxGeometry x="410" width="30" height="30" as="geometry" />
        </mxCell>
        <mxCell id="0k8XALfBYV1QB0xShEJz-11" value="" style="edgeStyle=orthogonalEdgeStyle;html=1;verticalAlign=bottom;endArrow=open;endSize=8;strokeColor=#ff0000;rounded=0;" edge="1" source="0k8XALfBYV1QB0xShEJz-10" parent="1">
          <mxGeometry relative="1" as="geometry">
            <mxPoint x="425" y="90" as="targetPoint" />
          </mxGeometry>
        </mxCell>
        <mxCell id="0k8XALfBYV1QB0xShEJz-12" value="New order" style="text;html=1;align=center;verticalAlign=middle;resizable=0;points=[];autosize=1;strokeColor=none;fillColor=none;" vertex="1" parent="1">
          <mxGeometry x="425" y="30" width="80" height="30" as="geometry" />
        </mxCell>
        <mxCell id="0k8XALfBYV1QB0xShEJz-13" value="Preparing order in restaurant" style="rounded=1;whiteSpace=wrap;html=1;arcSize=40;fontColor=#000000;fillColor=#ffffc0;strokeColor=#ff0000;" vertex="1" parent="1">
          <mxGeometry x="365" y="280" width="120" height="40" as="geometry" />
        </mxCell>
        <mxCell id="0k8XALfBYV1QB0xShEJz-14" value="" style="edgeStyle=orthogonalEdgeStyle;html=1;verticalAlign=bottom;endArrow=open;endSize=8;strokeColor=#ff0000;rounded=0;" edge="1" source="0k8XALfBYV1QB0xShEJz-13" parent="1">
          <mxGeometry relative="1" as="geometry">
            <mxPoint x="425" y="380" as="targetPoint" />
          </mxGeometry>
        </mxCell>
        <mxCell id="0k8XALfBYV1QB0xShEJz-15" value="order has been sent" style="rounded=1;whiteSpace=wrap;html=1;arcSize=40;fontColor=#000000;fillColor=#ffffc0;strokeColor=#ff0000;" vertex="1" parent="1">
          <mxGeometry x="365" y="380" width="120" height="40" as="geometry" />
        </mxCell>
        <mxCell id="0k8XALfBYV1QB0xShEJz-16" value="" style="edgeStyle=orthogonalEdgeStyle;html=1;verticalAlign=bottom;endArrow=open;endSize=8;strokeColor=#ff0000;rounded=0;" edge="1" source="0k8XALfBYV1QB0xShEJz-15" parent="1">
          <mxGeometry relative="1" as="geometry">
            <mxPoint x="425" y="480" as="targetPoint" />
          </mxGeometry>
        </mxCell>
        <mxCell id="0k8XALfBYV1QB0xShEJz-17" value="Successful payment&amp;nbsp;" style="rounded=1;whiteSpace=wrap;html=1;arcSize=40;fontColor=#000000;fillColor=#ffffc0;strokeColor=#ff0000;" vertex="1" parent="1">
          <mxGeometry x="365" y="90" width="120" height="40" as="geometry" />
        </mxCell>
        <mxCell id="0k8XALfBYV1QB0xShEJz-18" value="" style="edgeStyle=orthogonalEdgeStyle;html=1;verticalAlign=bottom;endArrow=open;endSize=8;strokeColor=#ff0000;rounded=0;" edge="1" source="0k8XALfBYV1QB0xShEJz-17" parent="1">
          <mxGeometry relative="1" as="geometry">
            <mxPoint x="425" y="180" as="targetPoint" />
          </mxGeometry>
        </mxCell>
        <mxCell id="0k8XALfBYV1QB0xShEJz-20" value="Order sent to restaurant" style="rounded=1;whiteSpace=wrap;html=1;arcSize=40;fontColor=#000000;fillColor=#ffffc0;strokeColor=#ff0000;" vertex="1" parent="1">
          <mxGeometry x="365" y="180" width="120" height="40" as="geometry" />
        </mxCell>
        <mxCell id="0k8XALfBYV1QB0xShEJz-21" value="" style="edgeStyle=orthogonalEdgeStyle;html=1;verticalAlign=bottom;endArrow=open;endSize=8;strokeColor=#ff0000;rounded=0;" edge="1" source="0k8XALfBYV1QB0xShEJz-20" parent="1">
          <mxGeometry relative="1" as="geometry">
            <mxPoint x="425" y="280" as="targetPoint" />
          </mxGeometry>
        </mxCell>
        <mxCell id="0k8XALfBYV1QB0xShEJz-22" value="order arrived" style="rounded=1;whiteSpace=wrap;html=1;arcSize=40;fontColor=#000000;fillColor=#ffffc0;strokeColor=#ff0000;" vertex="1" parent="1">
          <mxGeometry x="365" y="480" width="120" height="40" as="geometry" />
        </mxCell>
        <mxCell id="0k8XALfBYV1QB0xShEJz-23" value="" style="edgeStyle=orthogonalEdgeStyle;html=1;verticalAlign=bottom;endArrow=open;endSize=8;strokeColor=#ff0000;rounded=0;" edge="1" source="0k8XALfBYV1QB0xShEJz-22" parent="1">
          <mxGeometry relative="1" as="geometry">
            <mxPoint x="425" y="580" as="targetPoint" />
          </mxGeometry>
        </mxCell>
        <mxCell id="0k8XALfBYV1QB0xShEJz-24" value="" style="ellipse;html=1;shape=endState;fillColor=#000000;strokeColor=#ff0000;" vertex="1" parent="1">
          <mxGeometry x="410" y="580" width="30" height="30" as="geometry" />
        </mxCell>
      </root>
    </mxGraphModel>
  </diagram>
</mxfile>
